<?xml version="1.0" standalone="no"?>
<!DOCTYPE svg PUBLIC "-//W3C//DTD SVG 20010904//EN"
 "http://www.w3.org/TR/2001/REC-SVG-20010904/DTD/svg10.dtd">
<svg version="1.0" xmlns="http://www.w3.org/2000/svg"
 width="460.000000pt" height="460.000000pt" viewBox="0 0 460.000000 460.000000"
 preserveAspectRatio="xMidYMid meet">
<metadata>
Created by potrace 1.11, written by Peter Selinger 2001-2013
</metadata>
<g transform="translate(0.000000,460.000000) scale(0.100000,-0.100000)"
fill="#000000" stroke="none">
<path d="M4180 4383 c-30 -2 -70 -6 -88 -9 -28 -4 -31 -8 -22 -20 7 -8 9 -14
5 -14 -4 0 -13 7 -19 15 -9 13 -17 14 -44 4 -17 -6 -30 -15 -27 -19 4 -7 -29
-17 -85 -26 -63 -11 -122 -36 -144 -60 -13 -16 -27 -26 -31 -23 -3 4 4 16 16
28 29 27 19 27 -39 -3 -26 -13 -73 -26 -105 -29 -32 -3 -69 -12 -81 -21 -13
-8 -40 -18 -60 -21 -20 -4 -39 -12 -43 -18 -4 -7 0 -8 11 -4 40 16 69 20 62 9
-3 -6 -20 -13 -36 -17 -43 -9 -88 -33 -140 -73 -41 -31 -42 -31 -13 -3 34 32
32 44 -6 34 -13 -3 -18 -9 -12 -13 6 -3 -15 -17 -46 -29 -87 -35 -145 -63
-140 -68 3 -2 30 7 61 21 31 14 56 21 56 16 0 -4 -6 -11 -12 -13 -7 -3 -3 -6
9 -6 12 -1 25 4 28 9 8 13 25 13 25 1 0 -11 -47 -27 -108 -36 -24 -4 -55 -18
-70 -31 l-27 -24 28 10 c57 20 46 9 -28 -29 -42 -22 -93 -45 -113 -52 -20 -6
-42 -15 -48 -20 -6 -5 -14 -5 -19 -1 -9 8 4 -38 15 -53 10 -14 20 -45 15 -45
-3 0 -16 18 -31 41 -24 38 -27 40 -43 25 -10 -9 -24 -16 -33 -16 -8 0 -27 -9
-41 -20 -14 -11 -28 -20 -32 -20 -3 0 -32 -12 -63 -26 -82 -38 -201 -84 -215
-84 -6 0 -29 -5 -50 -11 -32 -9 -36 -13 -26 -25 6 -8 9 -17 6 -20 -14 -15
-254 -22 -302 -9 -28 8 -29 7 -15 -10 14 -17 13 -17 -10 -10 -14 4 -37 14 -51
21 -25 12 -27 12 -22 -6 3 -10 11 -21 18 -24 9 -3 12 -17 8 -43 -6 -44 9 -63
112 -141 33 -25 78 -65 100 -89 109 -118 206 -213 218 -213 7 0 28 -11 47 -23
19 -13 41 -22 49 -19 8 2 11 0 8 -5 -6 -9 33 -24 133 -50 l35 -9 40 67 c49 82
217 264 305 330 36 27 70 53 77 59 37 31 190 122 265 158 176 84 212 95 328
95 58 0 116 -3 130 -6 26 -6 92 -38 113 -55 7 -5 23 -13 37 -17 48 -14 315
-147 340 -169 14 -12 50 -40 80 -61 30 -21 61 -47 68 -57 7 -10 18 -16 23 -13
5 4 9 -3 9 -14 0 -12 5 -21 11 -21 6 0 8 -9 4 -21 -4 -13 0 -27 11 -40 9 -10
13 -19 8 -19 -5 0 -9 -26 -8 -58 1 -62 -11 -97 -28 -86 -7 5 -9 0 -6 -14 4
-12 2 -22 -3 -22 -5 0 -9 -8 -9 -18 0 -10 -5 -23 -12 -30 -9 -9 -8 -12 5 -12
9 0 17 -4 17 -10 0 -5 -10 -9 -22 -7 -18 1 -23 -3 -21 -20 1 -11 -4 -27 -12
-33 -8 -7 -15 -17 -15 -22 0 -6 7 -5 15 2 11 9 19 10 26 3 8 -8 2 -13 -21 -18
-17 -4 -29 -12 -27 -18 4 -14 -31 -49 -42 -42 -5 3 -7 -4 -4 -15 3 -11 0 -20
-6 -20 -6 0 -11 -7 -11 -15 0 -9 -6 -12 -15 -9 -11 5 -13 2 -9 -10 4 -11 1
-16 -10 -16 -9 0 -16 -4 -16 -8 0 -5 -16 -16 -35 -25 -19 -9 -35 -21 -35 -27
0 -5 -7 -10 -16 -10 -9 0 -18 -9 -21 -19 -7 -27 -39 -32 -67 -10 -20 16 -35
18 -93 14 -37 -3 -92 -11 -121 -17 -41 -9 -58 -9 -73 0 -25 16 -44 15 -59 -3
-7 -9 -15 -14 -17 -11 -7 7 -96 -35 -113 -53 -8 -9 -19 -16 -25 -16 -31 0 -74
-42 -95 -92 -12 -29 -31 -58 -41 -64 -10 -5 -19 -17 -19 -27 1 -12 9 -8 33 18
18 20 44 43 60 53 23 15 27 15 27 2 0 -8 6 -15 14 -15 18 0 27 -36 16 -64 -9
-23 -36 -115 -46 -160 -7 -27 -84 -115 -105 -117 -11 -2 -12 -2 -64 -16 -47
-14 -309 -9 -375 5 -151 34 -207 53 -300 101 -83 42 -103 61 -129 122 -19 43
-24 47 -44 40 -12 -5 -74 -11 -137 -15 -63 -4 -133 -12 -155 -18 -22 -7 -43
-12 -47 -12 -17 -2 -58 -48 -58 -66 0 -23 -34 -96 -58 -122 -8 -10 -10 -18 -4
-18 5 0 -2 -13 -16 -30 -15 -16 -33 -30 -40 -30 -9 0 -11 -7 -7 -19 6 -18 -35
-95 -59 -112 -15 -11 -36 -84 -26 -87 6 -2 0 -12 -13 -22 -19 -15 -25 -32 -30
-78 -6 -52 -12 -65 -46 -101 -22 -23 -44 -41 -50 -41 -6 0 -11 -5 -11 -11 0
-5 -4 -8 -10 -4 -5 3 -17 -1 -27 -9 -56 -46 -97 -76 -105 -76 -6 0 -28 -20
-50 -45 -29 -32 -57 -51 -99 -66 -56 -21 -58 -23 -39 -36 12 -8 20 -25 20 -41
0 -18 -3 -23 -9 -14 -8 14 -61 7 -61 -8 0 -8 -39 -23 -54 -20 -17 3 -56 -10
-56 -19 0 -4 26 -14 58 -20 31 -7 70 -17 86 -22 15 -5 31 -7 35 -5 4 3 13 1
21 -5 16 -9 14 -10 -30 -13 -8 -1 -15 -6 -15 -11 -2 -42 -17 -61 -62 -78 -26
-11 -84 -36 -128 -57 -44 -21 -96 -43 -115 -49 -19 -6 -70 -31 -113 -54 l-78
-44 42 -41 c41 -42 62 -51 74 -32 4 6 10 8 15 5 5 -3 16 2 24 11 15 14 17 14
22 0 9 -25 22 -19 26 11 2 20 9 29 26 31 27 4 29 -14 2 -21 -11 -3 -20 -12
-20 -21 0 -22 17 -20 30 4 8 15 21 20 53 20 24 0 48 -5 55 -12 9 -9 12 -9 12
1 0 7 7 10 18 6 11 -3 29 3 45 15 23 19 93 29 85 13 -2 -5 -10 -21 -18 -36
-11 -23 -11 -30 -1 -36 9 -6 8 -10 -6 -15 -17 -7 -17 -8 1 -22 14 -10 23 -11
33 -3 7 6 11 15 8 19 -3 5 -1 11 4 15 6 3 8 12 5 20 -4 10 4 19 22 26 l29 11
-30 14 -30 13 41 1 c23 0 57 6 76 14 20 9 50 12 74 9 33 -4 43 -1 63 21 14 14
30 26 37 26 6 0 14 7 18 15 3 8 2 14 -2 13 -4 -1 -15 2 -24 6 -10 5 -32 3 -49
-3 -18 -6 -35 -9 -37 -6 -3 3 -3 6 -1 8 2 1 18 12 36 24 17 13 50 27 74 32 23
5 46 14 52 20 15 15 80 14 95 -1 7 -7 12 -8 12 -1 0 5 29 18 65 28 35 9 69 23
76 31 15 18 33 18 26 0 -4 -10 0 -13 14 -11 11 2 22 -2 25 -9 5 -13 -32 -116
-57 -159 -6 -11 -9 -21 -6 -23 2 -2 10 8 18 24 7 15 25 45 39 67 13 22 31 53
38 69 7 16 15 26 19 23 3 -4 1 -12 -4 -19 -6 -7 -13 -24 -15 -38 -3 -14 -9
-34 -13 -45 -9 -21 31 26 78 94 16 23 35 41 43 41 18 0 18 -16 1 -27 -9 -5
-12 -22 -9 -52 l4 -44 20 24 19 24 -6 -40 c-5 -34 -4 -37 6 -20 13 23 55 65
64 65 8 0 -2 -35 -20 -73 -8 -15 -10 -25 -5 -22 5 3 17 21 25 39 17 35 54 80
61 73 6 -5 -52 -116 -78 -149 -12 -15 -19 -31 -15 -34 3 -4 11 5 18 19 6 13
21 30 33 37 12 6 31 27 41 47 11 19 21 30 23 24 5 -14 -34 -96 -66 -139 -22
-29 -23 -32 -6 -29 30 4 46 18 40 33 -3 8 1 14 10 14 12 0 15 -6 10 -27 -5
-21 -4 -24 4 -13 5 8 10 23 10 33 0 9 5 17 11 17 7 0 9 -9 4 -22 -3 -13 -10
-38 -15 -56 -4 -19 -15 -41 -24 -51 -9 -10 -13 -21 -10 -24 4 -4 -1 -9 -10
-13 -10 -4 -16 -18 -16 -36 0 -29 0 -29 37 19 20 26 39 50 43 53 4 3 12 14 18
25 11 18 12 17 6 -9 -5 -20 -3 -27 4 -22 6 4 14 22 18 41 3 20 12 39 19 43 8
4 25 30 39 57 29 59 55 95 56 78 0 -7 7 -10 15 -7 19 8 19 -6 0 -32 -8 -12
-12 -24 -8 -27 3 -4 1 -12 -4 -19 -6 -7 -14 -24 -18 -38 -12 -43 -66 -150 -76
-150 -5 0 -9 -9 -9 -20 0 -11 -4 -20 -10 -20 -5 0 -10 -7 -10 -15 0 -8 -4 -15
-9 -15 -5 0 -12 -11 -15 -25 -4 -14 -11 -25 -16 -25 -6 0 -10 -6 -10 -14 0 -7
-7 -19 -15 -26 -8 -7 -15 -21 -15 -31 0 -10 -8 -24 -17 -31 -10 -7 -19 -20
-21 -28 -1 -8 -34 -46 -73 -83 -39 -37 -69 -70 -67 -73 3 -2 38 27 79 66 41
38 78 70 83 70 4 0 6 7 2 15 -3 8 -1 15 4 15 12 0 61 53 55 59 -3 2 -12 -4
-20 -15 -8 -10 -15 -14 -15 -7 0 6 11 25 25 41 14 17 25 33 25 37 0 4 14 27
30 52 17 24 30 46 30 49 0 3 14 25 30 49 17 24 30 47 30 50 0 4 9 20 21 36 11
16 19 35 16 42 -3 7 4 30 14 52 10 21 19 47 19 56 0 19 13 32 23 22 3 -3 -3
-23 -14 -45 -11 -22 -19 -42 -17 -44 2 -2 22 31 43 73 23 43 50 80 63 86 12 6
22 13 22 17 0 3 8 15 19 26 10 11 24 30 30 42 6 12 18 22 25 22 8 0 17 7 20
16 3 8 2 12 -4 9 -35 -22 34 115 88 175 36 39 41 42 42 23 0 -12 -5 -25 -11
-28 -15 -10 -32 -55 -34 -94 -1 -19 -7 -37 -13 -39 -7 -2 -12 -16 -12 -30 0
-15 -14 -65 -30 -112 -16 -46 -27 -86 -25 -89 3 -2 7 2 10 10 2 8 16 46 31 84
14 39 29 85 34 103 8 32 27 62 39 62 3 0 12 -4 20 -9 12 -8 12 -12 2 -25 -7
-8 -10 -20 -6 -25 3 -6 1 -16 -5 -23 -22 -26 -98 -188 -90 -193 4 -2 13 9 20
25 12 29 40 60 40 44 0 -5 -25 -58 -55 -118 -56 -109 -63 -139 -25 -95 l21 24
-16 -32 c-8 -18 -23 -33 -33 -33 -11 -1 -27 -23 -46 -63 -16 -34 -41 -78 -56
-97 -34 -45 -51 -76 -44 -83 3 -3 1 -15 -6 -26 -7 -14 -7 -21 0 -21 5 0 10 6
10 14 0 8 9 21 20 29 13 9 18 20 14 31 -4 11 -1 16 10 16 9 0 24 16 33 35 9
20 22 34 28 31 15 -6 25 2 53 42 23 33 19 39 -25 33 -7 -1 -13 3 -13 9 0 6 5
8 10 5 6 -3 13 1 16 9 3 9 10 16 16 16 5 0 6 -5 3 -10 -11 -17 8 -11 31 11
l21 20 -5 -28 c-2 -15 -10 -35 -17 -43 -7 -8 -26 -38 -42 -65 -28 -47 -28 -51
-13 -68 20 -21 30 -22 30 -2 0 8 5 15 11 15 6 0 8 9 4 20 -4 11 -2 20 4 20 6
0 29 37 51 82 23 45 45 87 50 93 6 7 7 15 3 18 -3 4 -1 7 6 7 8 0 11 6 7 16
-8 20 12 57 26 48 7 -5 9 1 4 19 -5 20 -2 29 14 37 23 12 26 39 8 59 -11 11
-10 13 5 8 11 -4 17 -1 17 9 0 8 4 13 9 9 6 -3 9 3 9 12 -1 26 21 101 32 108
6 3 10 15 10 26 0 10 5 19 11 19 6 0 9 6 6 14 -3 8 1 20 9 26 17 15 17 10 4
-26 -7 -18 -7 -29 -1 -33 6 -4 4 -29 -5 -66 -19 -75 -65 -225 -76 -245 -12
-23 -63 -139 -89 -200 -12 -30 -33 -68 -46 -83 -24 -30 -29 -47 -14 -47 16 0
58 64 64 98 4 19 23 67 42 107 19 41 35 79 35 85 0 5 3 10 8 10 4 0 18 30 31
67 37 107 63 163 73 163 6 0 7 -10 4 -22 -4 -13 -13 -45 -21 -73 -8 -27 -23
-76 -34 -108 -11 -32 -15 -55 -9 -51 8 5 9 -6 4 -37 -5 -24 -9 -51 -10 -59 -1
-8 -5 -31 -9 -50 -13 -74 -15 -110 -7 -110 5 0 12 16 16 35 6 32 34 51 34 23
0 -6 3 -8 8 -4 4 4 7 17 7 29 0 26 18 32 38 12 15 -14 15 -17 -3 -35 -21 -21
-27 -60 -9 -60 5 0 3 -10 -5 -22 -18 -25 -22 -73 -6 -63 6 3 10 15 10 26 0 10
4 19 8 19 4 0 9 -35 9 -78 l1 -79 -43 -44 c-52 -52 -61 -78 -10 -29 19 18 37
31 41 28 3 -3 -34 -47 -83 -96 -48 -50 -80 -86 -70 -81 10 6 17 6 17 0 0 -5
-12 -14 -27 -19 -16 -6 -41 -22 -58 -37 -21 -19 -24 -23 -8 -16 31 15 35 14
23 -9 -11 -20 -6 -20 745 -20 l755 0 0 2174 0 2174 -27 7 c-97 24 -252 35
-393 28z m-635 -193 c-3 -5 -15 -10 -26 -10 -11 0 -17 5 -14 10 3 6 15 10 26
10 11 0 17 -4 14 -10z m-188 -126 c-3 -3 -12 -4 -19 -1 -8 3 -5 6 6 6 11 1 17
-2 13 -5z m-952 -444 c3 -5 1 -10 -4 -10 -6 0 -11 5 -11 10 0 6 2 10 4 10 3 0
8 -4 11 -10z m-299 -97 c-10 -10 -86 -11 -86 -1 0 5 21 8 47 8 25 0 43 -3 39
-7z m2454 -303 c0 -5 -2 -10 -4 -10 -3 0 -8 5 -11 10 -3 6 -1 10 4 10 6 0 11
-4 11 -10z m-270 -586 c0 -8 -19 -13 -24 -6 -3 5 1 9 9 9 8 0 15 -2 15 -3z
m-270 -106 c0 -4 -13 -8 -30 -8 -16 0 -30 4 -30 8 0 5 14 9 30 9 17 0 30 -4
30 -9z m30 -43 c7 -8 8 -15 2 -15 -5 0 -15 7 -22 15 -7 8 -8 15 -2 15 5 0 15
-7 22 -15z m56 -38 c8 3 14 -1 14 -9 0 -17 -32 -20 -42 -4 -4 5 -4 15 -1 20 4
6 8 6 10 -1 3 -7 11 -9 19 -6z m-1461 -268 c4 -6 -1 -17 -11 -25 -18 -14 -18
-14 3 -5 30 15 38 14 23 -3 -6 -8 -28 -20 -48 -27 -20 -7 -40 -16 -43 -21 -3
-5 -13 -6 -23 -2 -12 4 -15 13 -10 28 8 26 2 20 49 45 45 24 51 25 60 10z
m411 -546 c-10 -10 -19 5 -10 18 6 11 8 11 12 0 2 -7 1 -15 -2 -18z m-56 -17
c0 -3 -4 -8 -10 -11 -5 -3 -10 -1 -10 4 0 6 5 11 10 11 6 0 10 -2 10 -4z m120
-61 c-7 -9 -15 -13 -17 -11 -7 7 7 26 19 26 6 0 6 -6 -2 -15z m280 -75 c0 -5
-5 -10 -11 -10 -5 0 -7 5 -4 10 3 6 8 10 11 10 2 0 4 -4 4 -10z m-340 -10 c0
-5 -5 -10 -11 -10 -5 0 -7 5 -4 10 3 6 8 10 11 10 2 0 4 -4 4 -10z m104 -32
c-6 -20 -5 -21 10 -9 18 15 21 8 6 -19 -6 -11 -17 -17 -25 -14 -9 4 -15 0 -15
-10 0 -8 -9 -20 -20 -26 -17 -9 -20 -8 -20 13 0 23 45 87 62 87 5 0 6 -10 2
-22z m-84 -32 c0 -3 -4 -8 -10 -11 -5 -3 -10 -1 -10 4 0 6 5 11 10 11 6 0 10
-2 10 -4z m281 -33 c-12 -20 -14 -14 -5 12 4 9 9 14 11 11 3 -2 0 -13 -6 -23z
m-349 -65 c-40 -77 -68 -103 -52 -49 5 17 17 42 27 55 10 13 25 33 33 45 32
46 28 17 -8 -51z m121 6 c2 -14 -1 -31 -7 -37 -7 -7 -15 -21 -19 -31 -4 -10
-10 -16 -13 -13 -3 3 -1 14 5 25 6 12 11 34 11 51 0 37 16 41 23 5z m59 -136
c-7 -7 -12 -8 -12 -2 0 14 12 26 19 19 2 -3 -1 -11 -7 -17z m114 -36 c-4 -3
-11 -1 -17 5 -8 8 -7 18 3 34 l13 24 3 -28 c2 -16 1 -31 -2 -35z m-791 -59
c-9 -20 -18 -39 -22 -42 -10 -10 8 53 19 66 18 22 19 14 3 -24z m785 -3 c0 -5
-4 -10 -10 -10 -5 0 -10 5 -10 10 0 6 5 10 10 10 6 0 10 -4 10 -10z m-843 -42
c-3 -8 -6 -5 -6 6 -1 11 2 17 5 13 3 -3 4 -12 1 -19z m666 -13 c-3 -9 -8 -14
-10 -11 -3 3 -2 9 2 15 9 16 15 13 8 -4z m-7 -77 c-18 -26 -22 -17 -5 14 6 11
13 17 16 15 3 -3 -2 -16 -11 -29z m517 5 c-4 -10 -13 -24 -20 -31 -7 -7 -13
-22 -13 -33 0 -10 -5 -19 -11 -19 -6 0 -8 -9 -4 -20 4 -12 2 -20 -5 -20 -15 0
-4 72 12 81 6 4 7 12 3 19 -5 9 -4 11 3 6 7 -4 12 -1 12 8 0 12 6 18 27 25 1
1 -1 -7 -4 -16z m-1053 -58 c-16 -47 -23 -40 -9 9 6 21 13 36 16 33 3 -3 0
-22 -7 -42z m473 -60 c-3 -9 -8 -14 -10 -11 -3 3 -2 9 2 15 9 16 15 13 8 -4z
m-483 -14 c0 -6 -4 -13 -10 -16 -5 -3 -10 1 -10 9 0 9 5 16 10 16 6 0 10 -4
10 -9z m980 -11 c0 -5 -4 -10 -10 -10 -5 0 -10 5 -10 10 0 6 5 10 10 10 6 0
10 -4 10 -10z m39 1 c7 -5 10 -14 6 -21 -7 -12 -13 -78 -19 -230 -3 -60 -9
-95 -22 -117 -24 -41 -38 -42 -31 -4 4 16 2 31 -3 33 -23 8 -3 152 27 188 16
20 20 87 6 101 -8 8 -10 -1 -9 -32 3 -40 -6 -58 -26 -59 -4 0 -3 12 3 26 5 15
7 35 3 46 -4 14 1 24 15 34 12 9 21 22 21 30 0 16 9 18 29 5z m-247 -23 c-7
-7 -12 -8 -12 -2 0 14 12 26 19 19 2 -3 -1 -11 -7 -17z m-312 -18 c0 -5 -5
-10 -11 -10 -5 0 -7 5 -4 10 3 6 8 10 11 10 2 0 4 -4 4 -10z m320 -39 c0 -6
-4 -13 -10 -16 -5 -3 -10 -24 -10 -46 0 -21 -4 -39 -10 -39 -5 0 -10 18 -10
40 0 22 5 40 10 40 6 0 10 7 10 15 0 8 5 15 10 15 6 0 10 -4 10 -9z m150 -76
c0 -5 -5 -3 -10 5 -5 8 -10 20 -10 25 0 6 5 3 10 -5 5 -8 10 -19 10 -25z
m-560 -10 c-13 -14 -25 -23 -27 -21 -8 8 22 46 36 46 10 0 7 -8 -9 -25z m556
-37 c-3 -13 -5 -31 -5 -40 -1 -10 -8 -18 -16 -18 -11 0 -12 5 -5 26 13 33 13
37 -2 28 -9 -5 -9 -2 1 9 19 24 32 21 27 -5z m134 12 c0 -5 -4 -10 -10 -10 -5
0 -10 5 -10 10 0 6 5 10 10 10 6 0 10 -4 10 -10z m-300 -59 c0 -6 -4 -13 -10
-16 -5 -3 -10 1 -10 9 0 9 5 16 10 16 6 0 10 -4 10 -9z m300 -11 c0 -5 -5 -10
-11 -10 -5 0 -7 5 -4 10 3 6 8 10 11 10 2 0 4 -4 4 -10z m-137 -43 c3 -12 5
-42 4 -66 -1 -26 3 -45 10 -48 26 -10 -35 -113 -68 -113 -11 0 -22 -7 -25 -15
-4 -8 -10 -15 -14 -15 -5 0 -3 11 3 24 7 13 15 22 18 20 9 -5 19 33 19 74 0
18 5 42 11 53 5 11 11 42 11 68 1 51 21 62 31 18z m127 -22 c0 -8 -4 -15 -10
-15 -5 0 -7 7 -4 15 4 8 8 15 10 15 2 0 4 -7 4 -15z m-20 -55 c0 -5 -5 -10
-11 -10 -5 0 -7 5 -4 10 3 6 8 10 11 10 2 0 4 -4 4 -10z m30 -50 c0 -5 -5 -10
-11 -10 -5 0 -7 5 -4 10 3 6 8 10 11 10 2 0 4 -4 4 -10z m-20 -34 c0 -2 -7 -9
-15 -16 -13 -11 -14 -10 -9 4 5 14 24 23 24 12z m220 -216 c-20 -13 -43 -13
-35 0 3 6 16 10 28 10 18 0 19 -2 7 -10z m-15 -40 c-3 -5 -11 -10 -16 -10 -6
0 -7 5 -4 10 3 6 11 10 16 10 6 0 7 -4 4 -10z m135 -50 c-34 -30 -50 -37 -50
-22 0 9 61 51 75 51 6 0 -6 -13 -25 -29z"/>
<path d="M3551 524 c0 -11 3 -14 6 -6 3 7 2 16 -1 19 -3 4 -6 -2 -5 -13z"/>
<path d="M3465 339 c-4 -6 -5 -12 -2 -15 2 -3 7 2 10 11 7 17 1 20 -8 4z"/>
<path d="M3345 4140 c-3 -5 -2 -10 4 -10 5 0 13 5 16 10 3 6 2 10 -4 10 -5 0
-13 -4 -16 -10z"/>
<path d="M3010 3944 c-14 -8 -45 -19 -70 -25 -25 -7 -39 -14 -32 -16 20 -7
101 20 119 39 19 21 17 21 -17 2z"/>
<path d="M3827 3350 c3 -11 9 -23 14 -25 4 -3 5 -13 2 -21 -3 -8 -1 -25 5 -37
6 -12 25 -62 42 -112 37 -111 72 -185 85 -181 17 5 17 69 0 136 -22 80 -54
160 -66 160 -5 0 -9 6 -9 13 0 12 -62 87 -72 87 -4 0 -4 -9 -1 -20z"/>
<path d="M3603 3319 c-7 -7 -13 -22 -13 -33 0 -16 -2 -18 -9 -7 -15 23 -24
-25 -16 -88 7 -62 42 -178 56 -186 5 -4 9 -18 9 -33 0 -18 3 -23 9 -14 5 9 16
2 36 -28 15 -22 34 -40 41 -40 16 0 54 48 54 69 0 14 2 14 10 1 8 -13 11 -11
16 8 4 12 9 22 13 22 8 0 6 79 -3 87 -3 3 -6 13 -6 22 0 9 -7 29 -15 45 -9 16
-13 36 -11 43 3 7 0 13 -6 13 -7 0 -36 23 -65 52 -29 28 -56 49 -59 45 -4 -4
4 -15 17 -26 13 -11 21 -23 17 -27 -9 -8 -51 41 -58 68 -4 15 -7 17 -17 7z
m112 -99 c3 -5 2 -10 -4 -10 -5 0 -13 5 -16 10 -3 6 -2 10 4 10 5 0 13 -4 16
-10z m-62 -17 c2 -10 8 -27 12 -38 6 -18 4 -17 -14 3 -11 13 -25 21 -31 17 -5
-3 -10 0 -10 8 0 30 35 38 43 10z m12 -133 c3 -5 -1 -10 -9 -10 -9 0 -16 5
-16 10 0 6 4 10 9 10 6 0 13 -4 16 -10z m69 -45 c-18 -28 -55 -33 -74 -10 -11
13 -8 15 21 15 19 0 41 5 49 10 22 14 22 13 4 -15z"/>
<path d="M867 2813 c-11 -10 -8 -63 3 -63 6 0 10 16 10 35 0 36 -2 40 -13 28z"/>
<path d="M2962 2698 c-16 -16 -15 -65 1 -71 15 -6 33 -81 42 -171 3 -33 10
-65 16 -72 5 -7 7 -23 4 -36 -4 -16 2 -36 21 -63 15 -22 27 -52 26 -67 -1 -24
4 -28 36 -34 20 -4 42 -11 49 -16 15 -12 55 -7 60 8 2 6 -22 37 -53 70 -31 32
-68 84 -81 114 -34 74 -71 204 -80 281 -8 63 -19 79 -41 57z"/>
<path d="M3300 2566 c0 -8 6 -16 14 -19 8 -3 16 -16 18 -29 4 -20 5 -21 12 -5
5 11 2 26 -8 42 -18 27 -36 33 -36 11z"/>
<path d="M3171 2404 c0 -11 3 -14 6 -6 3 7 2 16 -1 19 -3 4 -6 -2 -5 -13z"/>
<path d="M3370 2371 c0 -12 50 -44 57 -37 6 6 -37 45 -49 46 -5 0 -8 -4 -8 -9z"/>
<path d="M3351 2313 c19 -25 31 -33 49 -32 9 0 4 9 -15 24 -35 29 -54 33 -34
8z"/>
<path d="M1200 1822 c-14 -9 -46 -37 -70 -61 -25 -24 -83 -72 -130 -107 -47
-35 -94 -71 -105 -79 -10 -8 -23 -15 -28 -15 -5 0 -21 -10 -35 -21 l-27 -22
30 7 c61 14 314 141 361 181 33 28 35 33 32 82 l-3 53 -25 -18z"/>
<path d="M1858 903 c7 -3 16 -2 19 1 4 3 -2 6 -13 5 -11 0 -14 -3 -6 -6z"/>
<path d="M2941 879 c-13 -39 -14 -49 -1 -29 9 13 10 13 10 -1 0 -8 -7 -24 -16
-35 -13 -16 -15 -16 -10 -1 3 9 1 17 -4 17 -5 0 -11 -10 -15 -22 -7 -26 -20
-59 -42 -105 -8 -17 -13 -37 -11 -43 4 -12 17 11 39 69 7 18 20 41 30 50 21
19 56 96 40 86 -14 -8 -14 1 -1 26 6 11 7 19 1 19 -5 0 -14 -14 -20 -31z"/>
<path d="M2340 881 c0 -25 6 -27 13 -6 4 8 2 17 -3 20 -6 4 -10 -3 -10 -14z"/>
<path d="M2320 839 c0 -5 5 -7 10 -4 6 3 10 8 10 11 0 2 -4 4 -10 4 -5 0 -10
-5 -10 -11z"/>
<path d="M2323 808 c-11 -14 -43 -94 -43 -106 1 -4 14 20 31 52 28 55 34 82
12 54z"/>
<path d="M2090 789 c-7 -11 -10 -23 -7 -25 2 -2 9 7 15 21 14 30 7 33 -8 4z"/>
<path d="M2359 793 c-13 -16 -12 -17 4 -4 16 13 21 21 13 21 -2 0 -10 -8 -17
-17z"/>
<path d="M912 768 c-18 -18 -14 -27 8 -21 21 6 26 18 12 27 -5 3 -14 0 -20 -6z"/>
<path d="M1245 740 c-4 -6 10 -10 35 -10 25 0 39 4 35 10 -3 6 -19 10 -35 10
-16 0 -32 -4 -35 -10z"/>
<path d="M2390 740 c0 -5 5 -10 11 -10 5 0 7 5 4 10 -3 6 -8 10 -11 10 -2 0
-4 -4 -4 -10z"/>
<path d="M1045 710 c3 -5 8 -10 11 -10 2 0 4 5 4 10 0 6 -5 10 -11 10 -5 0 -7
-4 -4 -10z"/>
<path d="M1194 693 c1 -22 6 -29 27 -31 29 -3 54 20 45 43 -3 9 -18 15 -39 15
-31 0 -34 -3 -33 -27z"/>
<path d="M1100 666 c0 -2 8 -10 18 -17 15 -13 16 -12 3 4 -13 16 -21 21 -21
13z"/>
<path d="M1446 619 c-9 -44 -8 -69 3 -69 16 0 31 56 18 69 -8 8 -8 11 1 11 7
0 12 5 12 10 0 25 -28 7 -34 -21z"/>
<path d="M2422 638 c-7 -7 -12 -17 -12 -24 0 -7 -6 -14 -12 -17 -7 -2 -10 -8
-5 -12 8 -9 33 20 40 48 6 20 5 21 -11 5z"/>
<path d="M1140 630 c0 -5 5 -10 11 -10 5 0 7 5 4 10 -3 6 -8 10 -11 10 -2 0
-4 -4 -4 -10z"/>
<path d="M2507 633 c-4 -3 -7 -11 -7 -17 0 -6 5 -5 12 2 6 6 9 14 7 17 -3 3
-9 2 -12 -2z"/>
<path d="M2600 578 c-15 -21 -17 -28 -6 -19 16 13 41 51 33 51 -2 0 -14 -15
-27 -32z"/>
<path d="M1060 590 c0 -5 -6 -10 -12 -10 -7 0 -25 -6 -39 -14 -15 -7 -49 -21
-77 -30 -28 -10 -53 -23 -56 -31 -4 -11 4 -11 47 1 29 9 66 21 82 29 17 7 41
16 55 20 51 15 68 45 25 45 -14 0 -25 -4 -25 -10z"/>
<path d="M2454 543 c-20 -32 -46 -68 -57 -80 -11 -13 -16 -23 -10 -23 6 0 31
30 55 68 56 84 60 92 55 92 -3 0 -22 -26 -43 -57z"/>
<path d="M2371 554 c0 -11 3 -14 6 -6 3 7 2 16 -1 19 -3 4 -6 -2 -5 -13z"/>
<path d="M2867 533 c-4 -3 -7 -11 -7 -17 0 -6 5 -5 12 2 6 6 9 14 7 17 -3 3
-9 2 -12 -2z"/>
<path d="M2900 515 c0 -8 -5 -15 -11 -15 -6 0 -9 -6 -6 -14 3 -8 -1 -22 -10
-33 -13 -16 -14 -16 -9 0 7 24 1 21 -17 -7 -15 -23 -15 -24 4 -19 11 3 32 23
46 44 14 22 30 39 35 39 11 0 4 -12 -29 -58 -14 -18 -23 -35 -21 -38 9 -8 67
87 62 101 -8 19 -44 20 -44 0z"/>
<path d="M3202 490 c0 -14 2 -19 5 -12 2 6 2 18 0 25 -3 6 -5 1 -5 -13z"/>
<path d="M2757 471 c-9 -16 -43 -54 -74 -85 -32 -31 -52 -56 -45 -56 23 0 152
139 152 165 0 14 -18 2 -33 -24z"/>
<path d="M3001 482 c-17 -31 -13 -40 5 -14 9 13 14 26 11 29 -3 2 -10 -4 -16
-15z"/>
<path d="M2298 463 c-17 -21 -5 -24 21 -4 17 13 19 18 7 18 -9 0 -21 -6 -28
-14z"/>
<path d="M2957 443 c-10 -9 -9 -23 2 -23 5 0 11 7 15 15 5 15 -5 20 -17 8z"/>
<path d="M2343 404 c-15 -14 -34 -29 -43 -34 -8 -5 -12 -11 -8 -15 3 -3 25 12
49 34 24 23 41 41 37 41 -4 0 -20 -12 -35 -26z"/>
<path d="M2867 367 c-26 -23 -78 -64 -117 -92 -38 -27 -70 -51 -70 -52 0 -5
57 25 94 51 50 33 151 125 145 131 -3 2 -26 -14 -52 -38z"/>
<path d="M2719 373 c-13 -16 -12 -17 4 -4 16 13 21 21 13 21 -2 0 -10 -8 -17
-17z"/>
<path d="M3240 361 c0 -11 -4 -23 -10 -26 -17 -10 -32 -45 -20 -45 6 0 16 11
22 25 13 28 34 35 23 8 -4 -13 -3 -15 5 -7 7 7 8 19 1 37 -12 32 -21 35 -21 8z"/>
<path d="M1525 360 c-8 -13 5 -13 25 0 13 8 13 10 -2 10 -9 0 -20 -4 -23 -10z"/>
<path d="M2223 360 c2 -8 -5 -23 -16 -32 -11 -10 -15 -18 -9 -18 6 0 9 -6 6
-14 -3 -7 1 -16 9 -19 10 -4 14 1 12 16 0 12 2 29 6 38 4 8 3 22 -2 30 -9 12
-10 12 -6 -1z"/>
<path d="M3285 360 c-3 -5 -1 -10 4 -10 6 0 11 5 11 10 0 6 -2 10 -4 10 -3 0
-8 -4 -11 -10z"/>
<path d="M2320 340 c-9 -6 -10 -10 -3 -10 6 0 15 5 18 10 8 12 4 12 -15 0z"/>
<path d="M2577 293 c-50 -35 -48 -50 3 -17 22 15 40 31 40 35 0 12 -1 12 -43
-18z"/>
<path d="M2180 270 c0 -6 -4 -9 -9 -5 -6 3 -15 -4 -21 -15 -6 -11 -19 -20 -30
-20 -10 0 -22 -4 -25 -10 -9 -15 45 -5 83 15 32 16 38 35 14 43 -7 2 -12 -1
-12 -8z"/>
<path d="M2511 243 c-35 -14 -121 -82 -109 -86 7 -3 2 -6 -11 -6 -14 -1 -33
-8 -43 -18 -24 -22 -23 -12 2 17 26 30 18 38 -9 11 -22 -22 -47 -29 -35 -9 4
7 3 8 -5 4 -6 -4 -9 -11 -6 -16 3 -5 1 -11 -5 -15 -5 -3 -10 0 -10 7 0 8 -5 7
-16 -4 -10 -10 -14 -23 -10 -34 9 -23 64 -13 134 23 51 27 65 46 40 56 -9 4
-8 6 3 6 8 1 20 -4 26 -10 6 -6 16 -8 22 -4 17 10 3 25 -17 19 -17 -6 -2 9 50
48 24 18 23 21 -1 11z"/>
<path d="M3156 233 c-6 -14 -5 -15 5 -6 7 7 10 15 7 18 -3 3 -9 -2 -12 -12z"/>
<path d="M2261 226 c-10 -12 -8 -13 9 -9 25 7 37 23 17 23 -8 0 -20 -6 -26
-14z"/>
<path d="M2220 200 c0 -5 5 -10 10 -10 6 0 10 5 10 10 0 6 -4 10 -10 10 -5 0
-10 -4 -10 -10z"/>
<path d="M2490 200 c0 -5 4 -10 9 -10 6 0 13 5 16 10 3 6 -1 10 -9 10 -9 0
-16 -4 -16 -10z"/>
<path d="M2385 190 c-3 -6 1 -7 9 -4 18 7 21 14 7 14 -6 0 -13 -4 -16 -10z"/>
<path d="M1768 153 c7 -3 16 -2 19 1 4 3 -2 6 -13 5 -11 0 -14 -3 -6 -6z"/>
<path d="M2180 57 c-19 -16 -48 -35 -65 -43 l-30 -13 51 -1 c36 0 56 5 65 17
13 15 11 16 -13 9 -19 -4 -28 -2 -28 5 0 8 12 10 33 6 54 -8 89 32 39 45 -11
3 -32 -7 -52 -25z"/>
</g>
</svg>
